<svg xmlns="http://www.w3.org/2000/svg" width="1564" height="670" viewBox="0 0 1564 670">
<g>
<path d="M 65.67 363.68 C62.99,365.88 62.07,366.00 47.42,366.00 C38.94,366.00 32.00,365.62 32.00,365.15 C32.00,364.69 58.52,344.40 90.94,320.06 L 149.88 275.82 L 163.19 285.43 C170.51,290.71 177.18,294.85 178.00,294.64 C178.82,294.42 191.43,285.30 206.00,274.36 C238.62,249.88 256.50,237.00 257.88,237.00 C258.46,237.00 263.79,240.52 269.72,244.83 C275.65,249.13 286.19,256.78 293.14,261.83 C300.09,266.87 306.10,271.00 306.50,271.00 C306.90,271.00 314.94,265.28 324.36,258.29 C367.65,226.17 408.45,196.96 409.47,197.35 C410.09,197.59 420.25,204.88 432.05,213.56 C457.90,232.58 526.92,282.81 536.00,289.22 L 542.50 293.80 L 554.44 285.40 C561.01,280.78 566.92,277.00 567.57,277.00 C568.21,277.00 574.31,281.21 581.12,286.36 C587.93,291.50 614.09,311.06 639.25,329.83 C664.41,348.59 685.00,364.18 685.00,364.47 C685.00,364.76 677.87,365.00 669.15,365.00 L 653.31 365.00 L 640.90 356.18 C634.08,351.33 619.05,340.66 607.50,332.47 C595.95,324.28 582.31,314.50 577.18,310.73 L 567.86 303.88 L 560.68 308.38 C556.73,310.85 552.70,313.47 551.72,314.19 C550.10,315.39 551.57,317.13 567.78,333.26 C577.60,343.02 585.19,351.00 584.65,351.00 C584.11,351.00 579.13,348.60 573.59,345.66 C553.28,334.90 524.59,315.77 432.82,251.81 C420.34,243.11 409.60,236.00 408.96,236.00 C408.31,236.00 405.02,238.18 401.64,240.85 C398.26,243.52 384.70,253.79 371.50,263.67 C320.10,302.15 276.00,332.48 276.00,329.34 C276.00,328.87 280.26,322.98 285.47,316.24 C290.68,309.51 294.67,304.00 294.33,304.00 C293.47,304.00 255.70,323.99 231.00,337.52 C219.73,343.70 203.17,352.63 194.22,357.37 L 177.94 366.00 L 168.97 366.00 C164.04,366.00 160.00,365.60 160.00,365.12 C160.00,364.24 181.16,349.29 194.50,340.75 C198.35,338.29 217.02,327.14 236.00,315.97 C274.79,293.15 292.42,281.98 291.27,280.94 C290.85,280.56 283.40,275.68 274.73,270.10 L 258.96 259.96 L 230.23 279.80 C214.43,290.71 199.30,301.14 196.61,302.97 L 191.72 306.29 L 198.02 311.94 L 204.32 317.60 L 193.85 321.95 L 186.88 318.00 L 179.90 314.05 L 168.20 320.73 C156.82,327.23 142.02,333.95 139.01,333.98 C138.20,333.99 143.13,328.39 149.97,321.53 C156.81,314.68 162.20,308.90 161.95,308.70 C159.64,306.79 151.93,302.00 151.17,302.00 C150.64,302.00 143.52,306.87 135.35,312.83 C127.18,318.78 108.80,332.14 94.50,342.51 C80.20,352.88 67.23,362.41 65.67,363.68 ZM 1123.00 332.00 L 1123.00 349.00 L 1114.17 349.00 C1109.31,349.00 1105.03,348.70 1104.67,348.33 C1104.30,347.97 1104.00,325.92 1104.00,299.33 L 1104.00 251.00 L 1123.00 251.00 L 1123.00 254.50 C1123.00,256.42 1123.26,258.00 1123.57,258.00 C1123.88,258.00 1125.59,256.89 1127.37,255.53 C1132.85,251.35 1137.38,250.00 1145.88,250.00 C1152.90,250.00 1154.56,250.38 1160.13,253.26 C1172.12,259.47 1177.56,270.09 1177.42,287.00 C1177.32,298.97 1174.89,305.79 1168.20,312.83 C1161.81,319.55 1156.23,322.20 1147.24,322.79 C1139.22,323.31 1133.89,321.85 1127.98,317.48 C1126.13,316.12 1124.25,315.00 1123.81,315.00 C1123.36,315.00 1123.00,322.65 1123.00,332.00 ZM 954.00 332.00 L 954.00 349.00 L 935.00 349.00 L 935.00 251.00 L 954.00 251.00 L 954.00 254.50 C954.00,258.32 955.00,258.91 957.13,256.34 C957.88,255.43 960.75,253.63 963.50,252.35 C969.32,249.64 980.96,249.18 987.25,251.43 C1004.10,257.44 1012.81,280.21 1006.02,300.50 C1004.08,306.30 1002.63,308.54 997.59,313.58 C990.54,320.62 984.93,323.01 975.57,322.98 C969.37,322.96 963.62,321.00 958.02,317.02 C956.47,315.91 954.92,315.00 954.60,315.00 C954.27,315.00 954.00,322.65 954.00,332.00 ZM 782.00 306.12 L 781.50 321.50 L 771.95 321.78 C766.70,321.94 762.09,321.75 761.70,321.37 C761.32,320.98 761.00,298.02 761.00,270.33 L 761.00 220.00 L 781.96 220.00 L 782.23 241.59 L 782.50 263.19 L 791.06 252.84 C795.78,247.15 803.81,237.44 808.91,231.25 L 818.20 220.00 L 843.13 220.00 L 838.32 226.14 C835.67,229.52 827.76,239.19 820.75,247.64 C813.74,256.08 808.00,263.45 808.00,264.01 C808.00,264.57 816.73,277.51 827.40,292.76 C838.07,308.02 846.59,320.84 846.34,321.25 C846.09,321.66 840.75,322.00 834.47,322.00 L 823.06 322.00 L 819.22 316.75 C817.11,313.86 810.46,304.20 804.44,295.27 C798.42,286.34 793.28,279.06 793.00,279.09 C792.72,279.11 790.25,281.75 787.50,284.94 L 782.50 290.74 ZM 1071.20 319.82 C1066.56,321.98 1063.83,322.52 1056.50,322.72 C1046.08,322.99 1040.55,321.56 1033.40,316.75 C1027.36,312.69 1022.81,306.76 1019.99,299.28 C1016.94,291.19 1017.46,277.95 1021.14,270.00 C1024.38,263.02 1030.96,256.42 1038.00,253.09 C1042.93,250.77 1044.70,250.50 1055.00,250.50 C1064.71,250.50 1067.24,250.84 1071.22,252.68 C1078.25,255.93 1085.28,263.03 1088.62,270.27 C1091.19,275.82 1091.50,277.59 1091.50,286.50 C1091.50,295.25 1091.17,297.21 1088.83,302.20 C1085.42,309.47 1078.46,316.43 1071.20,319.82 ZM 878.00 347.92 C872.91,350.22 865.62,350.50 859.50,348.62 C855.63,347.43 855.51,347.26 855.80,343.45 C855.97,341.28 856.54,337.85 857.07,335.83 L 858.04 332.15 L 863.95 332.33 C869.23,332.48 870.18,332.19 872.91,329.59 C874.57,328.00 875.82,326.86 876.51,325.45 C878.51,321.35 875.75,314.94 864.39,288.48 L 863.53 286.48 C855.54,267.87 849.00,252.28 849.00,251.83 C849.00,251.37 853.62,251.00 859.27,251.00 L 869.55 251.00 L 877.27 271.25 C881.52,282.39 885.50,292.85 886.12,294.50 C886.82,296.39 887.43,296.99 887.75,296.12 C888.03,295.36 891.74,285.01 896.00,273.12 L 903.74 251.50 L 913.87 251.22 C919.53,251.06 924.00,251.33 924.00,251.84 C924.00,253.10 892.70,332.78 890.75,336.50 C888.47,340.84 883.17,345.58 878.00,347.92 ZM 1224.50 268.50 L 1223.97 322.00 L 1215.15 322.00 C1210.30,322.00 1206.03,321.70 1205.67,321.33 C1205.30,320.97 1205.00,308.82 1205.00,294.33 L 1205.00 268.00 L 1184.00 268.00 L 1184.00 251.00 L 1246.00 251.00 L 1246.00 267.93 L 1235.25 268.22 ZM 1132.01 303.75 C1147.39,311.59 1162.70,297.24 1157.62,279.76 C1155.16,271.32 1149.53,267.00 1140.97,267.00 C1129.91,267.00 1123.99,273.10 1123.26,285.28 C1122.69,294.71 1125.37,300.37 1132.01,303.75 ZM 1047.32 304.06 C1053.45,306.84 1058.74,306.55 1064.13,303.13 C1073.80,297.00 1075.86,281.93 1068.27,272.91 C1061.61,265.00 1048.42,264.96 1041.79,272.84 C1033.56,282.62 1036.49,299.14 1047.32,304.06 ZM 962.52 303.71 C976.10,311.40 990.42,300.20 988.68,283.23 C987.60,272.65 981.59,267.01 971.40,267.00 C960.27,267.00 953.98,274.21 954.02,286.96 C954.04,295.07 956.77,300.46 962.52,303.71 ZM 404.00 292.00 L 404.00 315.00 L 381.00 315.00 L 381.00 292.00 ZM 437.00 292.00 L 437.00 315.00 L 414.00 315.00 L 414.00 292.00 ZM 437.00 325.00 L 437.00 348.00 L 414.00 348.00 L 414.00 325.00 ZM 404.00 325.00 L 404.00 348.00 L 393.17 348.00 C387.21,348.00 382.03,347.70 381.67,347.33 C381.30,346.97 381.00,341.79 381.00,335.83 L 381.00 325.00 Z" fill="rgb(10,39,65)"/>
<path d="M 1235.73 417.70 C1233.30,419.01 1229.42,419.53 1220.00,419.81 C1213.12,420.01 1207.16,419.84 1206.75,419.42 C1206.34,419.01 1206.00,408.62 1206.00,396.33 L 1206.00 374.00 L 1218.55 374.00 C1231.96,374.00 1235.42,374.91 1238.44,379.22 C1240.92,382.75 1240.45,389.32 1237.46,392.87 C1234.95,395.85 1234.94,395.90 1236.95,396.97 C1244.07,400.79 1243.32,413.63 1235.73,417.70 ZM 1153.00 403.74 L 1152.50 419.50 L 1146.00 420.13 L 1146.00 374.00 L 1149.29 374.00 C1152.49,374.00 1152.84,374.44 1160.92,388.60 C1166.90,399.08 1169.51,402.82 1170.15,401.85 C1170.64,401.11 1174.46,394.54 1178.64,387.25 C1186.03,374.35 1186.32,374.00 1189.61,374.00 L 1193.00 374.00 L 1193.00 420.00 L 1186.05 420.00 L 1185.77 403.81 L 1185.50 387.63 L 1178.60 399.81 C1169.48,415.93 1169.40,415.93 1160.33,399.99 L 1153.50 387.97 ZM 770.40 412.50 C764.89,419.54 764.29,420.00 760.64,420.00 C757.69,420.00 756.98,419.70 757.70,418.75 C758.22,418.06 761.47,414.00 764.91,409.72 L 771.18 401.93 L 765.83 395.72 C765.31,395.11 764.82,394.55 764.36,394.02 C759.86,388.80 758.27,386.96 758.66,386.33 C758.87,385.98 759.66,386.00 760.89,386.02 C761.12,386.02 761.37,386.02 761.63,386.02 C765.19,386.05 765.96,386.61 771.29,393.02 C774.47,396.86 777.51,400.00 778.04,400.00 C778.57,400.00 779.00,396.85 779.00,393.00 L 779.00 386.00 L 786.00 386.00 L 786.00 393.00 C786.00,397.96 786.36,399.99 787.25,399.95 C787.94,399.92 790.97,396.77 794.00,392.95 C799.05,386.57 799.80,386.00 803.25,386.00 C805.31,386.00 807.00,386.29 807.00,386.64 C807.00,386.99 804.04,390.58 800.43,394.61 L 793.86 401.95 L 800.93 410.42 C804.82,415.07 808.00,419.13 808.00,419.44 C808.00,419.75 806.30,420.00 804.22,420.00 C800.69,420.00 800.05,419.49 794.66,412.50 C787.16,402.75 786.00,402.76 786.00,412.56 L 786.00 420.13 L 779.50 419.50 L 779.21 412.25 C779.00,407.06 778.54,405.00 777.59,405.00 C776.87,405.00 773.63,408.38 770.40,412.50 ZM 959.50 418.74 C956.49,420.25 948.93,420.92 945.17,420.02 C938.16,418.34 932.99,410.79 933.02,402.28 C933.05,392.86 940.77,385.00 950.00,385.00 C954.88,385.00 962.08,388.84 964.22,392.59 C965.20,394.28 966.28,397.77 966.63,400.34 L 967.27 405.00 L 953.64 405.00 C941.93,405.00 940.00,405.22 940.00,406.57 C940.00,413.53 950.61,417.36 957.79,412.98 C960.34,411.43 961.53,411.22 963.04,412.02 C964.12,412.60 965.00,413.43 965.00,413.88 C965.00,414.89 962.14,417.42 959.50,418.74 ZM 1058.21 417.92 C1054.89,420.28 1048.59,421.19 1044.31,419.92 C1037.25,417.83 1034.61,408.89 1039.41,403.31 C1041.69,400.65 1042.34,400.48 1051.41,400.15 C1060.69,399.82 1061.00,399.73 1061.00,397.48 C1061.00,391.85 1051.59,389.12 1045.34,392.93 C1042.21,394.84 1042.17,394.84 1040.35,392.83 C1038.57,390.86 1038.58,390.76 1040.85,388.92 C1046.00,384.75 1056.30,384.00 1061.52,387.42 C1066.71,390.82 1067.50,393.41 1067.50,406.95 L 1067.50 419.50 L 1064.50 419.50 C1062.20,419.50 1061.57,419.09 1061.79,417.75 C1062.17,415.52 1061.55,415.55 1058.21,417.92 ZM 1106.79 409.25 L 1106.50 419.50 L 1100.00 420.13 L 1100.00 374.00 L 1107.00 374.00 L 1107.00 383.50 C1107.00,388.73 1107.35,393.00 1107.77,393.00 C1108.19,393.00 1112.80,388.73 1118.00,383.50 C1127.10,374.36 1127.63,374.00 1131.88,374.00 L 1136.29 374.00 L 1126.40 384.05 C1120.95,389.57 1116.35,394.52 1116.17,395.04 C1115.99,395.57 1120.49,400.98 1126.17,407.07 C1131.85,413.16 1136.65,418.56 1136.83,419.07 C1137.02,419.58 1135.38,420.00 1133.21,420.00 C1129.46,420.00 1128.72,419.43 1119.52,409.50 C1114.18,403.73 1109.19,399.00 1108.44,399.00 C1107.39,399.00 1107.00,401.39 1106.79,409.25 ZM 919.40 418.61 C917.43,419.43 912.57,420.00 907.53,420.00 L 899.00 420.00 L 899.00 386.00 L 901.95 386.00 C904.84,386.00 904.91,386.12 905.20,391.75 L 905.50 397.50 L 913.34 398.00 C920.38,398.45 921.42,398.78 923.59,401.31 C925.31,403.31 926.00,405.31 926.00,408.33 C926.00,413.43 923.88,416.74 919.40,418.61 ZM 830.16 408.30 C823.00,417.27 820.27,420.00 818.47,420.00 C817.18,420.00 815.93,419.66 815.71,419.25 C815.34,418.58 815.39,407.83 815.84,391.75 C816.00,386.08 816.04,386.00 818.97,386.00 L 821.93 386.00 L 822.22 397.25 L 822.50 408.50 L 831.82 397.25 C839.02,388.57 841.70,386.00 843.57,386.00 L 846.00 386.00 L 846.00 420.00 L 840.06 420.00 L 839.78 408.30 L 839.50 396.59 ZM 1003.00 404.92 L 1003.00 420.00 L 1000.17 420.00 C998.61,420.00 997.03,419.70 996.67,419.33 C996.30,418.97 996.00,411.32 996.00,402.33 L 996.00 386.00 L 1003.00 386.00 L 1003.00 400.00 L 1020.00 400.00 L 1020.00 386.00 L 1027.00 386.00 L 1027.00 420.13 L 1020.50 419.50 L 1020.39 412.50 L 1020.27 405.50 L 1011.64 405.21 ZM 862.76 417.75 C861.39,419.21 859.48,420.00 857.33,420.00 C854.30,420.00 854.00,419.73 854.00,417.00 C854.00,414.64 854.44,414.00 856.05,414.00 C859.11,414.00 860.67,409.06 861.48,396.75 L 862.19 386.00 L 887.00 386.00 L 887.00 420.13 L 880.77 419.50 L 880.93 405.75 L 881.10 392.00 L 868.21 392.00 L 867.48 401.25 C866.67,411.56 865.84,414.46 862.76,417.75 ZM 1213.00 398.80 L 1213.00 414.20 L 1221.90 413.85 C1232.19,413.45 1235.00,411.87 1235.00,406.50 C1235.00,401.13 1232.19,399.55 1221.90,399.15 ZM 1213.00 380.00 L 1213.00 393.00 L 1220.78 393.00 C1230.07,393.00 1233.00,391.51 1233.00,386.77 C1233.00,381.28 1230.80,380.00 1221.34,380.00 ZM 905.00 403.00 L 905.00 414.00 L 910.67 414.00 C916.86,414.00 920.00,412.21 920.00,408.67 C920.00,404.77 917.15,403.00 910.85,403.00 ZM 1045.75 413.92 C1046.71,414.48 1049.22,414.95 1051.33,414.97 C1054.25,414.99 1055.85,414.31 1058.08,412.08 C1059.68,410.47 1061.00,408.22 1061.00,407.08 C1061.00,405.16 1060.42,405.00 1053.70,405.00 C1049.36,405.00 1045.91,405.49 1045.20,406.20 C1043.40,408.00 1043.74,412.75 1045.75,413.92 ZM 940.00 398.42 C940.00,399.75 941.56,400.00 950.00,400.00 C961.33,400.00 962.31,399.16 957.08,393.92 C954.78,391.63 953.26,391.00 950.00,391.00 C946.74,391.00 945.22,391.63 942.92,393.92 C941.32,395.53 940.00,397.56 940.00,398.42 ZM 946.96 378.55 C945.72,380.04 941.86,380.52 940.67,379.33 C939.48,378.14 939.96,374.28 941.45,373.04 C942.25,372.38 943.80,372.12 944.90,372.47 C947.41,373.26 948.55,376.63 946.96,378.55 ZM 958.96 378.55 C958.30,379.35 956.97,380.00 956.00,380.00 C952.02,380.00 950.79,374.79 954.25,372.61 C957.71,370.43 961.62,375.35 958.96,378.55 Z" fill="rgb(83,90,96)"/>
<path d="M 495.00 409.56 C482.36,411.07 449.82,411.24 435.50,409.87 C415.58,407.95 392.44,403.51 340.00,391.51 C307.12,383.99 283.04,381.02 255.00,381.02 C220.66,381.02 192.14,385.23 156.26,395.60 C147.88,398.02 140.68,399.99 140.26,399.98 C138.94,399.95 156.94,390.14 164.98,386.51 C199.66,370.85 245.38,363.11 287.15,365.84 C317.86,367.84 336.53,370.85 390.50,382.51 C432.18,391.52 458.10,394.97 484.20,394.99 C513.60,395.01 541.67,390.58 566.88,381.94 L 567.90 381.59 C578.59,377.93 583.11,376.38 583.33,376.84 C583.48,377.17 581.33,378.58 577.61,381.02 L 577.13 381.34 C554.56,396.14 526.46,405.80 495.00,409.56 ZM 1278.00 332.00 L 1278.00 349.00 L 1259.00 349.00 L 1259.00 251.00 L 1278.00 251.00 L 1278.00 254.50 C1278.00,256.42 1278.22,258.00 1278.49,258.00 C1278.76,258.00 1281.03,256.44 1283.53,254.53 C1289.27,250.15 1294.88,248.61 1302.29,249.38 C1310.89,250.27 1317.29,253.45 1322.95,259.64 C1329.85,267.19 1332.23,273.92 1332.26,286.00 C1332.28,293.35 1331.80,296.76 1330.15,301.05 C1324.62,315.39 1314.25,322.86 1299.72,322.96 C1292.43,323.00 1287.64,321.49 1282.37,317.47 C1280.59,316.11 1278.88,315.00 1278.57,315.00 C1278.26,315.00 1278.00,322.65 1278.00,332.00 ZM 1443.00 302.26 L 1442.50 321.50 L 1433.25 321.79 L 1424.00 322.08 L 1424.00 251.00 L 1443.50 251.00 L 1451.94 266.25 C1456.58,274.64 1460.92,282.31 1461.57,283.30 C1462.61,284.87 1464.02,282.92 1472.63,268.09 L 1482.50 251.07 L 1492.76 251.04 L 1503.03 251.00 L 1502.50 321.50 L 1483.50 321.50 L 1483.23 302.05 L 1482.96 282.60 L 1480.64 286.05 C1479.37,287.95 1475.76,294.11 1472.61,299.75 L 1466.89 310.00 L 1458.50 309.97 L 1451.00 296.49 L 1443.50 283.02 ZM 1367.00 347.92 C1361.14,350.57 1352.31,350.58 1345.35,347.94 C1343.22,347.13 1343.21,347.11 1344.85,339.38 L 1346.50 331.63 L 1352.62 331.88 C1357.80,332.09 1359.13,331.78 1361.35,329.82 C1362.79,328.54 1364.60,325.92 1365.36,324.00 C1365.53,323.58 1365.69,323.22 1365.81,322.85 C1366.73,319.91 1365.13,316.19 1346.96,273.74 L 1345.25 269.75 L 1337.22 251.00 L 1358.57 251.00 L 1366.88 272.75 C1371.46,284.71 1375.53,294.85 1375.93,295.28 C1376.33,295.71 1380.22,285.92 1384.57,273.53 L 1392.47 251.00 L 1402.74 251.00 C1408.38,251.00 1413.00,251.24 1413.00,251.53 C1413.00,252.15 1391.14,308.58 1384.93,324.00 C1378.51,339.93 1375.37,344.12 1367.00,347.92 ZM 1286.98 303.75 C1292.35,306.47 1297.13,306.58 1302.58,304.10 C1310.12,300.68 1313.61,293.68 1312.71,283.79 C1311.71,272.66 1305.63,267.00 1294.68,267.00 C1287.89,267.00 1283.39,269.79 1280.18,276.01 C1278.22,279.80 1277.92,281.61 1278.27,287.64 C1278.79,296.59 1281.03,300.73 1286.98,303.75 Z" fill="rgb(21,171,145)"/>
<path d="M 0.00 335.00 L 0.00 0.00 L 782.00 0.00 L 1564.00 0.00 L 1564.00 335.00 L 1564.00 670.00 L 782.00 670.00 L 0.00 670.00 L 0.00 335.00 ZM 959.50 418.74 C962.14,417.42 965.00,414.89 965.00,413.88 C965.00,413.43 964.12,412.60 963.04,412.02 C961.53,411.22 960.34,411.43 957.79,412.98 C950.61,417.36 940.00,413.53 940.00,406.57 C940.00,405.22 941.93,405.00 953.64,405.00 L 967.27 405.00 L 966.63 400.34 C966.28,397.77 965.20,394.28 964.22,392.59 C962.08,388.84 954.88,385.00 950.00,385.00 C940.77,385.00 933.05,392.86 933.02,402.28 C932.99,410.79 938.16,418.34 945.17,420.02 C948.93,420.92 956.49,420.25 959.50,418.74 ZM 1058.21 417.92 C1061.55,415.55 1062.17,415.52 1061.79,417.75 C1061.57,419.09 1062.20,419.50 1064.50,419.50 L 1067.50 419.50 L 1067.50 406.95 C1067.50,393.41 1066.71,390.82 1061.52,387.42 C1056.30,384.00 1046.00,384.75 1040.85,388.92 C1038.58,390.76 1038.57,390.86 1040.35,392.83 C1042.17,394.84 1042.21,394.84 1045.34,392.93 C1051.59,389.12 1061.00,391.85 1061.00,397.48 C1061.00,399.73 1060.69,399.82 1051.41,400.15 C1042.34,400.48 1041.69,400.65 1039.41,403.31 C1034.61,408.89 1037.25,417.83 1044.31,419.92 C1048.59,421.19 1054.89,420.28 1058.21,417.92 ZM 770.40 412.50 C773.63,408.38 776.87,405.00 777.59,405.00 C778.54,405.00 779.00,407.06 779.21,412.25 L 779.50 419.50 L 782.75 419.81 L 786.00 420.13 L 786.00 412.56 C786.00,402.76 787.16,402.75 794.66,412.50 C800.05,419.49 800.69,420.00 804.22,420.00 C806.30,420.00 808.00,419.75 808.00,419.44 C808.00,419.13 804.82,415.07 800.93,410.42 L 793.86 401.95 L 800.43 394.61 C804.04,390.58 807.00,386.99 807.00,386.64 C807.00,386.29 805.31,386.00 803.25,386.00 C799.80,386.00 799.05,386.57 794.00,392.95 C790.97,396.77 787.94,399.92 787.25,399.95 C786.36,399.99 786.00,397.96 786.00,393.00 L 786.00 386.00 L 782.50 386.00 L 779.00 386.00 L 779.00 393.00 C779.00,396.85 778.57,400.00 778.04,400.00 C777.51,400.00 774.47,396.86 771.29,393.02 C765.96,386.61 765.19,386.05 761.63,386.02 C757.18,386.00 756.90,385.36 765.83,395.72 L 771.18 401.93 L 764.91 409.72 C761.47,414.00 758.22,418.06 757.70,418.75 C756.98,419.70 757.69,420.00 760.64,420.00 C764.29,420.00 764.89,419.54 770.40,412.50 ZM 830.16 408.30 L 839.50 396.59 L 839.78 408.30 L 840.06 420.00 L 843.03 420.00 L 846.00 420.00 L 846.00 403.00 L 846.00 386.00 L 843.57 386.00 C841.70,386.00 839.02,388.57 831.82,397.25 L 822.50 408.50 L 822.22 397.25 L 821.93 386.00 L 818.97 386.00 C816.04,386.00 816.00,386.08 815.84,391.75 C815.39,407.83 815.34,418.58 815.71,419.25 C815.93,419.66 817.18,420.00 818.47,420.00 C820.27,420.00 823.00,417.27 830.16,408.30 ZM 862.76 417.75 C865.84,414.46 866.67,411.56 867.48,401.25 L 868.21 392.00 L 874.65 392.00 L 881.10 392.00 L 880.93 405.75 L 880.77 419.50 L 883.89 419.81 L 887.00 420.13 L 887.00 403.06 L 887.00 386.00 L 874.60 386.00 L 862.19 386.00 L 861.48 396.75 C860.67,409.06 859.11,414.00 856.05,414.00 C854.44,414.00 854.00,414.64 854.00,417.00 C854.00,419.73 854.30,420.00 857.33,420.00 C859.48,420.00 861.39,419.21 862.76,417.75 ZM 919.40 418.61 C923.88,416.74 926.00,413.43 926.00,408.33 C926.00,405.31 925.31,403.31 923.59,401.31 C921.42,398.78 920.38,398.45 913.34,398.00 L 905.50 397.50 L 905.20 391.75 C904.91,386.12 904.84,386.00 901.95,386.00 L 899.00 386.00 L 899.00 403.00 L 899.00 420.00 L 907.53 420.00 C912.57,420.00 917.43,419.43 919.40,418.61 ZM 1003.00 412.46 L 1003.00 404.92 L 1011.64 405.21 L 1020.27 405.50 L 1020.39 412.50 L 1020.50 419.50 L 1023.75 419.81 L 1027.00 420.13 L 1027.00 403.06 L 1027.00 386.00 L 1023.50 386.00 L 1020.00 386.00 L 1020.00 393.00 L 1020.00 400.00 L 1011.50 400.00 L 1003.00 400.00 L 1003.00 393.00 L 1003.00 386.00 L 999.50 386.00 L 996.00 386.00 L 996.00 402.33 C996.00,411.32 996.30,418.97 996.67,419.33 C997.03,419.70 998.61,420.00 1000.17,420.00 L 1003.00 420.00 L 1003.00 412.46 ZM 1106.79 409.25 C1107.00,401.39 1107.39,399.00 1108.44,399.00 C1109.19,399.00 1114.18,403.73 1119.52,409.50 C1128.72,419.43 1129.46,420.00 1133.21,420.00 C1135.38,420.00 1137.02,419.58 1136.83,419.07 C1136.65,418.56 1131.85,413.16 1126.17,407.07 C1120.49,400.98 1115.99,395.57 1116.17,395.04 C1116.35,394.52 1120.95,389.57 1126.40,384.05 L 1136.29 374.00 L 1131.88 374.00 C1127.63,374.00 1127.10,374.36 1118.00,383.50 C1112.80,388.73 1108.19,393.00 1107.77,393.00 C1107.35,393.00 1107.00,388.73 1107.00,383.50 L 1107.00 374.00 L 1103.50 374.00 L 1100.00 374.00 L 1100.00 397.06 L 1100.00 420.13 L 1103.25 419.81 L 1106.50 419.50 L 1106.79 409.25 ZM 1153.00 403.74 L 1153.50 387.97 L 1160.33 399.99 C1169.40,415.93 1169.48,415.93 1178.60,399.81 L 1185.50 387.63 L 1185.77 403.81 L 1186.05 420.00 L 1189.52 420.00 L 1193.00 420.00 L 1193.00 397.00 L 1193.00 374.00 L 1189.61 374.00 C1186.32,374.00 1186.03,374.35 1178.64,387.25 C1174.46,394.54 1170.64,401.11 1170.15,401.85 C1169.51,402.82 1166.90,399.08 1160.92,388.60 C1152.84,374.44 1152.49,374.00 1149.29,374.00 L 1146.00 374.00 L 1146.00 397.06 L 1146.00 420.13 L 1149.25 419.81 L 1152.50 419.50 L 1153.00 403.74 ZM 1235.73 417.70 C1243.32,413.63 1244.07,400.79 1236.95,396.97 C1234.94,395.90 1234.95,395.85 1237.46,392.87 C1240.45,389.32 1240.92,382.75 1238.44,379.22 C1235.42,374.91 1231.96,374.00 1218.55,374.00 L 1206.00 374.00 L 1206.00 396.33 C1206.00,408.62 1206.34,419.01 1206.75,419.42 C1207.16,419.84 1213.12,420.01 1220.00,419.81 C1229.42,419.53 1233.30,419.01 1235.73,417.70 ZM 495.00 409.56 C526.46,405.80 554.56,396.14 577.13,381.34 C586.58,375.14 586.76,375.13 566.88,381.94 C541.67,390.58 513.60,395.01 484.20,394.99 C458.10,394.97 432.18,391.52 390.50,382.51 C336.53,370.85 317.86,367.84 287.15,365.84 C245.38,363.11 199.66,370.85 164.98,386.51 C156.94,390.14 138.94,399.95 140.26,399.98 C140.68,399.99 147.88,398.02 156.26,395.60 C192.14,385.23 220.66,381.02 255.00,381.02 C283.04,381.02 307.12,383.99 340.00,391.51 C392.44,403.51 415.58,407.95 435.50,409.87 C449.82,411.24 482.36,411.07 495.00,409.56 ZM 946.96 378.55 C948.55,376.63 947.41,373.26 944.90,372.47 C943.80,372.12 942.25,372.38 941.45,373.04 C939.96,374.28 939.48,378.14 940.67,379.33 C941.86,380.52 945.72,380.04 946.96,378.55 ZM 958.96 378.55 C961.62,375.35 957.71,370.43 954.25,372.61 C950.79,374.79 952.02,380.00 956.00,380.00 C956.97,380.00 958.30,379.35 958.96,378.55 ZM 65.67 363.68 C67.23,362.41 80.20,352.88 94.50,342.51 C108.80,332.14 127.18,318.78 135.35,312.83 C143.52,306.87 150.64,302.00 151.17,302.00 C151.93,302.00 159.64,306.79 161.95,308.70 C162.20,308.90 156.81,314.68 149.97,321.53 C143.13,328.39 138.20,333.99 139.01,333.98 C142.02,333.95 156.82,327.23 168.20,320.73 L 179.90 314.05 L 186.88 318.00 L 193.85 321.95 L 199.09 319.77 L 204.32 317.60 L 198.02 311.94 L 191.72 306.29 L 196.61 302.97 C199.30,301.14 214.43,290.71 230.23,279.80 L 258.96 259.96 L 274.73 270.10 C283.40,275.68 290.85,280.56 291.27,280.94 C292.42,281.98 274.79,293.15 236.00,315.97 C217.02,327.14 198.35,338.29 194.50,340.75 C181.16,349.29 160.00,364.24 160.00,365.12 C160.00,365.60 164.04,366.00 168.97,366.00 L 177.94 366.00 L 194.22 357.37 C203.17,352.63 219.73,343.70 231.00,337.52 C255.70,323.99 293.47,304.00 294.33,304.00 C294.67,304.00 290.68,309.51 285.47,316.24 C280.26,322.98 276.00,328.87 276.00,329.34 C276.00,332.48 320.10,302.15 371.50,263.67 C384.70,253.79 398.26,243.52 401.64,240.85 C405.02,238.18 408.31,236.00 408.96,236.00 C409.60,236.00 420.34,243.11 432.82,251.81 C524.59,315.77 553.28,334.90 573.59,345.66 C579.13,348.60 584.11,351.00 584.65,351.00 C585.19,351.00 577.60,343.02 567.78,333.26 C551.57,317.13 550.10,315.39 551.72,314.19 C552.70,313.47 556.73,310.85 560.68,308.38 L 567.86 303.88 L 577.18 310.73 C582.31,314.50 595.95,324.28 607.50,332.47 C619.05,340.66 634.08,351.33 640.90,356.18 L 653.31 365.00 L 669.15 365.00 C677.87,365.00 685.00,364.76 685.00,364.47 C685.00,364.18 664.41,348.59 639.25,329.83 C614.09,311.06 587.93,291.50 581.12,286.36 C574.31,281.21 568.21,277.00 567.57,277.00 C566.92,277.00 561.01,280.78 554.44,285.40 L 542.50 293.80 L 536.00 289.22 C526.92,282.81 457.90,232.58 432.05,213.56 C420.25,204.88 410.09,197.59 409.47,197.35 C408.45,196.96 367.65,226.17 324.36,258.29 C314.94,265.28 306.90,271.00 306.50,271.00 C306.10,271.00 300.09,266.87 293.14,261.83 C286.19,256.78 275.65,249.13 269.72,244.83 C263.79,240.52 258.46,237.00 257.88,237.00 C256.50,237.00 238.62,249.88 206.00,274.36 C191.43,285.30 178.82,294.42 178.00,294.64 C177.18,294.85 170.51,290.71 163.19,285.43 L 149.88 275.82 L 90.94 320.06 C58.52,344.40 32.00,364.69 32.00,365.15 C32.00,365.62 38.94,366.00 47.42,366.00 C62.07,366.00 62.99,365.88 65.67,363.68 ZM 878.00 347.92 C883.17,345.58 888.47,340.84 890.75,336.50 C892.70,332.78 924.00,253.10 924.00,251.84 C924.00,251.33 919.53,251.06 913.87,251.22 L 903.74 251.50 L 896.00 273.12 C891.74,285.01 888.03,295.36 887.75,296.12 C887.43,296.99 886.82,296.39 886.12,294.50 C885.50,292.85 881.52,282.39 877.27,271.25 L 869.55 251.00 L 859.27 251.00 C853.62,251.00 849.00,251.37 849.00,251.83 C849.00,252.28 855.54,267.87 863.53,286.48 C879.68,324.08 879.50,323.28 872.91,329.59 C870.18,332.19 869.23,332.48 863.95,332.33 L 858.04 332.15 L 857.07 335.83 C856.54,337.85 855.97,341.28 855.80,343.45 C855.51,347.26 855.63,347.43 859.50,348.62 C865.62,350.50 872.91,350.22 878.00,347.92 ZM 1367.00 347.92 C1375.37,344.12 1378.51,339.93 1384.93,324.00 C1391.14,308.58 1413.00,252.15 1413.00,251.53 C1413.00,251.24 1408.38,251.00 1402.74,251.00 L 1392.47 251.00 L 1384.57 273.53 C1380.22,285.92 1376.33,295.71 1375.93,295.28 C1375.53,294.85 1371.46,284.71 1366.88,272.75 L 1358.57 251.00 L 1347.89 251.00 L 1337.22 251.00 L 1345.25 269.75 C1367.47,321.64 1366.91,320.13 1365.36,324.00 C1364.60,325.92 1362.79,328.54 1361.35,329.82 C1359.13,331.78 1357.80,332.09 1352.62,331.88 L 1346.50 331.63 L 1344.85 339.38 C1343.21,347.11 1343.22,347.13 1345.35,347.94 C1352.31,350.58 1361.14,350.57 1367.00,347.92 ZM 954.00 332.00 C954.00,322.65 954.27,315.00 954.60,315.00 C954.92,315.00 956.47,315.91 958.02,317.02 C963.62,321.00 969.37,322.96 975.57,322.98 C984.93,323.01 990.54,320.62 997.59,313.58 C1002.63,308.54 1004.08,306.30 1006.02,300.50 C1012.81,280.21 1004.10,257.44 987.25,251.43 C980.96,249.18 969.32,249.64 963.50,252.35 C960.75,253.63 957.88,255.43 957.13,256.34 C955.00,258.91 954.00,258.32 954.00,254.50 L 954.00 251.00 L 944.50 251.00 L 935.00 251.00 L 935.00 300.00 L 935.00 349.00 L 944.50 349.00 L 954.00 349.00 L 954.00 332.00 ZM 1123.00 332.00 C1123.00,322.65 1123.36,315.00 1123.81,315.00 C1124.25,315.00 1126.13,316.12 1127.98,317.48 C1133.89,321.85 1139.22,323.31 1147.24,322.79 C1156.23,322.20 1161.81,319.55 1168.20,312.83 C1174.89,305.79 1177.32,298.97 1177.42,287.00 C1177.56,270.09 1172.12,259.47 1160.13,253.26 C1154.56,250.38 1152.90,250.00 1145.88,250.00 C1137.38,250.00 1132.85,251.35 1127.37,255.53 C1125.59,256.89 1123.88,258.00 1123.57,258.00 C1123.26,258.00 1123.00,256.42 1123.00,254.50 L 1123.00 251.00 L 1113.50 251.00 L 1104.00 251.00 L 1104.00 299.33 C1104.00,325.92 1104.30,347.97 1104.67,348.33 C1105.03,348.70 1109.31,349.00 1114.17,349.00 L 1123.00 349.00 L 1123.00 332.00 ZM 1278.00 332.00 C1278.00,322.65 1278.26,315.00 1278.57,315.00 C1278.88,315.00 1280.59,316.11 1282.37,317.47 C1287.64,321.49 1292.43,323.00 1299.72,322.96 C1314.25,322.86 1324.62,315.39 1330.15,301.05 C1331.80,296.76 1332.28,293.35 1332.26,286.00 C1332.23,273.92 1329.85,267.19 1322.95,259.64 C1317.29,253.45 1310.89,250.27 1302.29,249.38 C1294.88,248.61 1289.27,250.15 1283.53,254.53 C1281.03,256.44 1278.76,258.00 1278.49,258.00 C1278.22,258.00 1278.00,256.42 1278.00,254.50 L 1278.00 251.00 L 1268.50 251.00 L 1259.00 251.00 L 1259.00 300.00 L 1259.00 349.00 L 1268.50 349.00 L 1278.00 349.00 L 1278.00 332.00 ZM 404.00 336.50 L 404.00 325.00 L 392.50 325.00 L 381.00 325.00 L 381.00 335.83 C381.00,341.79 381.30,346.97 381.67,347.33 C382.03,347.70 387.21,348.00 393.17,348.00 L 404.00 348.00 L 404.00 336.50 ZM 437.00 336.50 L 437.00 325.00 L 425.50 325.00 L 414.00 325.00 L 414.00 336.50 L 414.00 348.00 L 425.50 348.00 L 437.00 348.00 L 437.00 336.50 ZM 1071.20 319.82 C1078.46,316.43 1085.42,309.47 1088.83,302.20 C1091.17,297.21 1091.50,295.25 1091.50,286.50 C1091.50,277.59 1091.19,275.82 1088.62,270.27 C1085.28,263.03 1078.25,255.93 1071.22,252.68 C1067.24,250.84 1064.71,250.50 1055.00,250.50 C1044.70,250.50 1042.93,250.77 1038.00,253.09 C1030.96,256.42 1024.38,263.02 1021.14,270.00 C1017.46,277.95 1016.94,291.19 1019.99,299.28 C1022.81,306.76 1027.36,312.69 1033.40,316.75 C1040.55,321.56 1046.08,322.99 1056.50,322.72 C1063.83,322.52 1066.56,321.98 1071.20,319.82 ZM 782.00 306.12 L 782.50 290.74 L 787.50 284.94 C790.25,281.75 792.72,279.11 793.00,279.09 C793.28,279.06 798.42,286.34 804.44,295.27 C810.46,304.20 817.11,313.86 819.22,316.75 L 823.06 322.00 L 834.47 322.00 C840.75,322.00 846.09,321.66 846.34,321.25 C846.59,320.84 838.07,308.02 827.40,292.76 C816.73,277.51 808.00,264.57 808.00,264.01 C808.00,263.45 813.74,256.08 820.75,247.64 C827.76,239.19 835.67,229.52 838.32,226.14 L 843.13 220.00 L 830.67 220.00 L 818.20 220.00 L 808.91 231.25 C803.81,237.44 795.78,247.15 791.06,252.84 L 782.50 263.19 L 782.23 241.59 L 781.96 220.00 L 771.48 220.00 L 761.00 220.00 L 761.00 270.33 C761.00,298.02 761.32,320.98 761.70,321.37 C762.09,321.75 766.70,321.94 771.95,321.78 L 781.50 321.50 L 782.00 306.12 ZM 1224.23 295.25 L 1224.50 268.50 L 1235.25 268.22 L 1246.00 267.93 L 1246.00 259.47 L 1246.00 251.00 L 1215.00 251.00 L 1184.00 251.00 L 1184.00 259.50 L 1184.00 268.00 L 1194.50 268.00 L 1205.00 268.00 L 1205.00 294.33 C1205.00,308.82 1205.30,320.97 1205.67,321.33 C1206.03,321.70 1210.30,322.00 1215.15,322.00 L 1223.97 322.00 L 1224.23 295.25 ZM 1443.00 302.26 L 1443.50 283.02 L 1451.00 296.49 L 1458.50 309.97 L 1462.69 309.98 L 1466.89 310.00 L 1472.61 299.75 C1475.76,294.11 1479.37,287.95 1480.64,286.05 L 1482.96 282.60 L 1483.23 302.05 L 1483.50 321.50 L 1493.00 321.50 L 1502.50 321.50 L 1502.76 286.25 L 1503.03 251.00 L 1492.76 251.04 L 1482.50 251.07 L 1472.63 268.09 C1464.02,282.92 1462.61,284.87 1461.57,283.30 C1460.92,282.31 1456.58,274.64 1451.94,266.25 L 1443.50 251.00 L 1433.75 251.00 L 1424.00 251.00 L 1424.00 286.54 L 1424.00 322.08 L 1433.25 321.79 L 1442.50 321.50 L 1443.00 302.26 ZM 404.00 303.50 L 404.00 292.00 L 392.50 292.00 L 381.00 292.00 L 381.00 303.50 L 381.00 315.00 L 392.50 315.00 L 404.00 315.00 L 404.00 303.50 ZM 437.00 303.50 L 437.00 292.00 L 425.50 292.00 L 414.00 292.00 L 414.00 303.50 L 414.00 315.00 L 425.50 315.00 L 437.00 315.00 L 437.00 303.50 ZM 940.00 398.42 C940.00,397.56 941.32,395.53 942.92,393.92 C945.22,391.63 946.74,391.00 950.00,391.00 C953.26,391.00 954.78,391.63 957.08,393.92 C962.31,399.16 961.33,400.00 950.00,400.00 C941.56,400.00 940.00,399.75 940.00,398.42 ZM 1045.75 413.92 C1043.74,412.75 1043.40,408.00 1045.20,406.20 C1045.91,405.49 1049.36,405.00 1053.70,405.00 C1060.42,405.00 1061.00,405.16 1061.00,407.08 C1061.00,408.22 1059.68,410.47 1058.08,412.08 C1055.85,414.31 1054.25,414.99 1051.33,414.97 C1049.22,414.95 1046.71,414.48 1045.75,413.92 ZM 905.00 408.50 L 905.00 403.00 L 910.85 403.00 C917.15,403.00 920.00,404.77 920.00,408.67 C920.00,412.21 916.86,414.00 910.67,414.00 L 905.00 414.00 L 905.00 408.50 ZM 1213.00 406.50 L 1213.00 398.80 L 1221.90 399.15 C1232.19,399.55 1235.00,401.13 1235.00,406.50 C1235.00,411.87 1232.19,413.45 1221.90,413.85 L 1213.00 414.20 L 1213.00 406.50 ZM 1213.00 386.50 L 1213.00 380.00 L 1221.34 380.00 C1230.80,380.00 1233.00,381.28 1233.00,386.77 C1233.00,391.51 1230.07,393.00 1220.78,393.00 L 1213.00 393.00 L 1213.00 386.50 ZM 962.52 303.71 C956.77,300.46 954.04,295.07 954.02,286.96 C953.98,274.21 960.27,267.00 971.40,267.00 C981.59,267.01 987.60,272.65 988.68,283.23 C990.42,300.20 976.10,311.40 962.52,303.71 ZM 1132.01 303.75 C1125.37,300.37 1122.69,294.71 1123.26,285.28 C1123.99,273.10 1129.91,267.00 1140.97,267.00 C1149.53,267.00 1155.16,271.32 1157.62,279.76 C1162.70,297.24 1147.39,311.59 1132.01,303.75 ZM 1286.98 303.75 C1281.03,300.73 1278.79,296.59 1278.27,287.64 C1277.92,281.61 1278.22,279.80 1280.18,276.01 C1283.39,269.79 1287.89,267.00 1294.68,267.00 C1305.63,267.00 1311.71,272.66 1312.71,283.79 C1313.61,293.68 1310.12,300.68 1302.58,304.10 C1297.13,306.58 1292.35,306.47 1286.98,303.75 ZM 1047.32 304.06 C1036.49,299.14 1033.56,282.62 1041.79,272.84 C1048.42,264.96 1061.61,265.00 1068.27,272.91 C1075.86,281.93 1073.80,297.00 1064.13,303.13 C1058.74,306.55 1053.45,306.84 1047.32,304.06 Z" fill="rgb(253,253,253)"/>
</g>
</svg>